<svg width="30" height="30" viewBox="0 0 30 30" fill="none" xmlns="http://www.w3.org/2000/svg">
<defs>
<linearGradient id="paint0_linear_148_39" x1="15" y1="0.515625" x2="15" y2="29.3906" gradientUnits="userSpaceOnUse">
<stop stop-color="#000000"/>
<stop offset="1" stop-color="#ffffff" stop-opacity="0.97"/>
</linearGradient>
</defs>
<path d="M10.0343 23.7657C10.0343 23.8851 9.89516 23.9807 9.71976 23.9807C9.52016 23.9986 9.38105 23.9031 9.38105 23.7657C9.38105 23.6463 9.52016 23.5508 9.69556 23.5508C9.87702 23.5329 10.0343 23.6284 10.0343 23.7657ZM8.15323 23.497C8.11089 23.6165 8.23186 23.7538 8.41331 23.7896C8.57056 23.8493 8.75202 23.7896 8.78831 23.6702C8.8246 23.5508 8.70968 23.4135 8.52823 23.3597C8.37097 23.3179 8.19556 23.3776 8.15323 23.497ZM10.8266 23.3955C10.6512 23.4373 10.5302 23.5508 10.5484 23.6881C10.5665 23.8075 10.7238 23.8851 10.9052 23.8434C11.0806 23.8016 11.2016 23.6881 11.1835 23.5687C11.1653 23.4553 11.002 23.3776 10.8266 23.3955ZM14.8065 0.515625C6.41734 0.515625 0 6.80283 0 15.0843C0 21.7058 4.22177 27.3721 10.252 29.3663C11.0262 29.5036 11.2984 29.0319 11.2984 28.6438C11.2984 28.2736 11.2802 26.2317 11.2802 24.9778C11.2802 24.9778 7.04637 25.8734 6.15726 23.1985C6.15726 23.1985 5.46774 21.461 4.47581 21.0132C4.47581 21.0132 3.09073 20.0758 4.57258 20.0937C4.57258 20.0937 6.07863 20.2131 6.90726 21.6342C8.23185 23.9389 10.4516 23.2761 11.3165 22.8821C11.4556 21.9267 11.8488 21.264 12.2843 20.8699C8.90323 20.4997 5.49194 20.0161 5.49194 14.2722C5.49194 12.6303 5.95161 11.8063 6.91935 10.7555C6.7621 10.3674 6.24798 8.7672 7.07661 6.70132C8.34073 6.31322 11.25 8.31343 11.25 8.31343C12.4597 7.97906 13.7601 7.80591 15.0484 7.80591C16.3367 7.80591 17.6371 7.97906 18.8468 8.31343C18.8468 8.31343 21.756 6.30725 23.0202 6.70132C23.8488 8.77317 23.3347 10.3674 23.1774 10.7555C24.1452 11.8123 24.7379 12.6363 24.7379 14.2722C24.7379 20.034 21.1754 20.4938 17.7944 20.8699C18.3508 21.3416 18.8226 22.2372 18.8226 23.6403C18.8226 25.6525 18.8044 28.1423 18.8044 28.6319C18.8044 29.02 19.0827 29.4917 19.8508 29.3544C25.8992 27.3721 30 21.7058 30 15.0843C30 6.80283 23.1956 0.515625 14.8065 0.515625ZM5.87903 21.1087C5.8004 21.1685 5.81855 21.3058 5.92137 21.4192C6.01815 21.5148 6.15726 21.5566 6.23589 21.4789C6.31452 21.4192 6.29637 21.2819 6.19355 21.1685C6.09677 21.0729 5.95766 21.0311 5.87903 21.1087ZM5.22581 20.6251C5.18347 20.7027 5.24395 20.7983 5.36492 20.858C5.46169 20.9177 5.58266 20.8998 5.625 20.8162C5.66734 20.7386 5.60685 20.643 5.48589 20.5833C5.36492 20.5475 5.26815 20.5654 5.22581 20.6251ZM7.18548 22.7507C7.08871 22.8283 7.125 23.0074 7.26411 23.1209C7.40323 23.2582 7.57863 23.2761 7.65726 23.1806C7.73589 23.103 7.6996 22.9239 7.57863 22.8104C7.44556 22.6731 7.26411 22.6552 7.18548 22.7507ZM6.49597 21.873C6.39919 21.9327 6.39919 22.0879 6.49597 22.2253C6.59274 22.3626 6.75605 22.4223 6.83468 22.3626C6.93145 22.285 6.93145 22.1297 6.83468 21.9924C6.75 21.8551 6.59274 21.7954 6.49597 21.873Z" fill="url(#paint0_linear_148_39)"/>
</svg>
