<svg width="177" height="37" viewBox="0 0 177 37" fill="none" xmlns="http://www.w3.org/2000/svg">
<defs>
<linearGradient id="__foloiofy" x1="675" y1="-6" x2="675" y2="38" gradientUnits="userSpaceOnUse">
<stop stop-color="#6000FC"/>
<stop offset="100%" stop-color="#EB5A09" stop-opacity="0.97"/>
</linearGradient>
</defs>
<path d="M15.4025 0.750996C16.2728 2.56415 18.4848 8.14868 19.2101 10.4695L14.6409 12.0651C13.9519 9.78052 11.9212 4.4861 10.8696 2.23779L15.4025 0.750996ZM31.9385 3.65205C31.5396 4.55863 31.2132 5.68279 30.9956 6.48058C29.9803 10.4333 27.9133 16.1991 24.9397 20.1155C21.1321 25.1561 15.8376 28.8187 10.6883 30.7769L6.62679 26.6792C11.5586 25.2649 17.2156 22.0012 20.9507 17.3233C23.6705 13.8783 25.9188 7.67726 26.5353 2.129L31.9385 3.65205ZM5.28505 2.99931C6.40921 5.32015 8.65753 10.7234 9.49158 13.153L4.8499 14.8574C4.08837 12.5365 1.695 6.5531 0.679632 4.63115L5.28505 2.99931Z" fill="url(#__foloiofy)" fill-opacity="0.89"/>
<path d="M53.508 9.92558H58.5123V14.2772H53.653V29H47.996V9.05526C47.996 6.83112 48.6487 5.06631 49.9542 3.76084C51.2838 2.45536 53.1453 1.80263 55.5387 1.80263C56.3849 1.80263 57.1826 1.89933 57.9321 2.09273C58.7057 2.26196 59.3463 2.5158 59.854 2.85426L58.3672 6.952C57.7145 6.49266 56.953 6.263 56.0827 6.263C54.3662 6.263 53.508 7.20584 53.508 9.09152V9.92558ZM70.3822 29.2901C68.3273 29.2901 66.4779 28.867 64.834 28.0209C63.2142 27.1506 61.945 25.9539 61.0263 24.4308C60.1077 22.9078 59.6483 21.1792 59.6483 19.2452C59.6483 17.3112 60.1077 15.5826 61.0263 14.0596C61.945 12.5365 63.2142 11.3519 64.834 10.5058C66.4779 9.63547 68.3273 9.20031 70.3822 9.20031C72.4372 9.20031 74.2745 9.63547 75.8942 10.5058C77.514 11.3519 78.7832 12.5365 79.7019 14.0596C80.6205 15.5826 81.0799 17.3112 81.0799 19.2452C81.0799 21.1792 80.6205 22.9078 79.7019 24.4308C78.7832 25.9539 77.514 27.1506 75.8942 28.0209C74.2745 28.867 72.4372 29.2901 70.3822 29.2901ZM70.3822 24.6484C71.8328 24.6484 73.0174 24.1649 73.936 23.1979C74.8789 22.2067 75.3503 20.8891 75.3503 19.2452C75.3503 17.6013 74.8789 16.2958 73.936 15.3288C73.0174 14.3376 71.8328 13.842 70.3822 13.842C68.9317 13.842 67.735 14.3376 66.7922 15.3288C65.8493 16.2958 65.3779 17.6013 65.3779 19.2452C65.3779 20.8891 65.8493 22.2067 66.7922 23.1979C67.735 24.1649 68.9317 24.6484 70.3822 24.6484ZM91.86 29.2901C89.66 29.2901 87.9435 28.7099 86.7106 27.5495C85.4776 26.3649 84.8612 24.6968 84.8612 22.5452V2.09273H90.5182V22.2188C90.5182 23.0408 90.7237 23.6814 91.1347 24.1407C91.5698 24.5759 92.1742 24.7935 92.9478 24.7935C93.238 24.7935 93.5281 24.7572 93.8182 24.6847C94.1324 24.6122 94.3742 24.5275 94.5434 24.4308L94.7973 28.8187C93.8544 29.133 92.8753 29.2901 91.86 29.2901ZM97.5745 9.49042H103.232V29H97.5745V9.49042ZM100.403 6.77068C99.3635 6.77068 98.5174 6.46849 97.8646 5.8641C97.2119 5.25972 96.8855 4.51028 96.8855 3.61579C96.8855 2.72129 97.2119 1.97186 97.8646 1.36747C98.5174 0.763084 99.3635 0.46089 100.403 0.46089C101.443 0.46089 102.289 0.750996 102.941 1.33121C103.594 1.91142 103.921 2.63668 103.921 3.507C103.921 4.44984 103.594 5.23554 102.941 5.8641C102.289 6.46849 101.443 6.77068 100.403 6.77068ZM117.765 29.2901C115.71 29.2901 113.861 28.867 112.217 28.0209C110.597 27.1506 109.328 25.9539 108.409 24.4308C107.491 22.9078 107.031 21.1792 107.031 19.2452C107.031 17.3112 107.491 15.5826 108.409 14.0596C109.328 12.5365 110.597 11.3519 112.217 10.5058C113.861 9.63547 115.71 9.20031 117.765 9.20031C119.82 9.20031 121.657 9.63547 123.277 10.5058C124.897 11.3519 126.166 12.5365 127.085 14.0596C128.003 15.5826 128.463 17.3112 128.463 19.2452C128.463 21.1792 128.003 22.9078 127.085 24.4308C126.166 25.9539 124.897 27.1506 123.277 28.0209C121.657 28.867 119.82 29.2901 117.765 29.2901ZM117.765 24.6484C119.216 24.6484 120.4 24.1649 121.319 23.1979C122.262 22.2067 122.733 20.8891 122.733 19.2452C122.733 17.6013 122.262 16.2958 121.319 15.3288C120.4 14.3376 119.216 13.842 117.765 13.842C116.315 13.842 115.118 14.3376 114.175 15.3288C113.232 16.2958 112.761 17.6013 112.761 19.2452C112.761 20.8891 113.232 22.2067 114.175 23.1979C115.118 24.1649 116.315 24.6484 117.765 24.6484ZM137.756 9.92558H142.76V14.2772H137.901V29H132.244V9.05526C132.244 6.83112 132.897 5.06631 134.202 3.76084C135.532 2.45536 137.393 1.80263 139.787 1.80263C140.633 1.80263 141.431 1.89933 142.18 2.09273C142.954 2.26196 143.594 2.5158 144.102 2.85426L142.615 6.952C141.963 6.49266 141.201 6.263 140.331 6.263C138.614 6.263 137.756 7.20584 137.756 9.09152V9.92558ZM165.249 9.49042V25.7363C165.249 29.3143 164.343 31.9736 162.53 33.7142C160.717 35.4548 158.081 36.3252 154.624 36.3252C152.787 36.3252 151.046 36.0955 149.402 35.6362C147.783 35.1768 146.417 34.512 145.305 33.6417L147.553 29.5802C148.375 30.2571 149.378 30.789 150.563 31.1758C151.748 31.5626 152.944 31.756 154.153 31.756C156.039 31.756 157.417 31.3208 158.287 30.4505C159.157 29.5802 159.592 28.2506 159.592 26.4616V25.8088C158.867 26.5341 158.009 27.0901 157.018 27.4769C156.027 27.8638 154.963 28.0572 153.827 28.0572C151.264 28.0572 149.233 27.3319 147.734 25.8814C146.236 24.4067 145.486 22.2067 145.486 19.2815V9.49042H151.143V18.4474C151.143 21.6144 152.461 23.1979 155.096 23.1979C156.45 23.1979 157.538 22.7627 158.359 21.8924C159.181 20.9979 159.592 19.6804 159.592 17.9397V9.49042H165.249ZM172.63 29.2901C171.639 29.2901 170.805 28.9516 170.128 28.2747C169.451 27.5978 169.112 26.7517 169.112 25.7363C169.112 24.6968 169.451 23.8627 170.128 23.2342C170.805 22.5814 171.639 22.2551 172.63 22.2551C173.621 22.2551 174.455 22.5814 175.132 23.2342C175.809 23.8627 176.147 24.6968 176.147 25.7363C176.147 26.7517 175.809 27.5978 175.132 28.2747C174.455 28.9516 173.621 29.2901 172.63 29.2901Z" fill="white"/>
</svg>
