<svg width="44" height="44" viewBox="0 0 44 44" fill="none" xmlns="http://www.w3.org/2000/svg">
<circle cx="21.8824" cy="21.8824" r="21.8824" fill="#000000" fill-opacity="1"/>
<path d="M22.0217 9.89717C22.7236 11.3594 24.5075 15.8632 25.0924 17.7349L21.4075 19.0217C20.8519 17.1792 19.2141 12.9094 18.366 11.0962L22.0217 9.89717ZM35.3575 12.2368C35.0358 12.9679 34.7726 13.8745 34.5972 14.5179C33.7783 17.7057 32.1113 22.3557 29.7132 25.5142C26.6424 29.5792 22.3726 32.533 18.2198 34.1123L14.9443 30.8075C18.9217 29.667 23.4839 27.0349 26.4962 23.2623C28.6896 20.484 30.5028 15.483 31 11.0085L35.3575 12.2368ZM13.8622 11.7104C14.7688 13.5821 16.5821 17.9396 17.2547 19.8991L13.5113 21.2736C12.8972 19.4019 10.967 14.5764 10.1481 13.0264L13.8622 11.7104Z" fill="url(#paint0_linear_54_11)"/>
<defs>
<linearGradient id="paint0_linear_54_11" x1="22.8113" y1="4.67924" x2="22.8113" y2="32.7547" gradientUnits="userSpaceOnUse">
<stop stop-color="#6000FC"/>
<stop offset="1" stop-color="#EB5A09" stop-opacity="0.97"/>
</linearGradient>
</defs>
</svg>
